<?xml version="1.0" encoding="utf-8"?>
<!-- Generator: Adobe Illustrator 24.3.0, SVG Export Plug-In . SVG Version: 6.00 Build 0)  -->
<svg version="1.1" id="Layer_1" xmlns="http://www.w3.org/2000/svg" xmlns:xlink="http://www.w3.org/1999/xlink" x="0px" y="0px"
	 viewBox="0 0 144 144" style="enable-background:new 0 0 144 144;" xml:space="preserve">
<style type="text/css">
	.dt0{fill:none!important;}
	.dt1{fill:#4FA893!important;}
</style>
<g>
	<g>
		<path class="dt0" d="M48.73,69.09c-1.31,3.91-2.07,6.15-2.29,6.73l-1.25,3.12h19.16l-0.08-35.3
			C58.05,48.39,52.86,56.87,48.73,69.09z"/>
		<path d="M84.96,34.15l-18.35-0.01c-0.01,0-0.03,0-0.04,0c-2.03-0.05-5.66,0-8.34,0c-15.82,0-27.14,2.63-33.67,7.31
			c-7.8,5.56-11.7,12.87-11.7,21.93c0,3.66,0.74,7.44,2.23,11.35l8.54-8.28c-1.74-3.25-2.61-6.74-2.61-10.47
			c0-10.93,8.04-16.39,24.11-16.39c6.31,0,12.32,0.53,18.01,1.59c-5.19,2.7-9.29,6.14-12.3,10.32c-3.01,4.18-6.19,10.85-9.52,20.02
			l-1.63,4.55c-3.45,9.49-6.04,15.89-7.78,19.2c-1.74,3.3-2.98,5.72-5.45,7.54l-6.41,0.01l-6.19,7.4h21.07l5.88-7.38l-11.68-0.03
			c5.8-3.65,10.49-9.39,13.83-17.94l17.01,0.15l4.39-4.67l0.07,29.82h0.23l0,0.04c0.02,0,1.99-0.02,5-0.04h5.22l0-0.04
			c3.06-0.02,6.51-0.04,9.91-0.05c1.23,0,1.38-2.19,0.18-2.19V36.11C85.66,36.11,84.96,34.15,84.96,34.15z M45.19,78.95l1.25-3.12
			c0.22-0.58,0.98-2.83,2.29-6.73c4.14-12.23,9.32-20.7,15.54-25.44l0.08,35.3H45.19z M74.87,107.84l-0.01-3.88
			c0.01-0.06,0.01-0.13,0-0.19l-0.16-67.64c1.08,0,2.21,0,3.34,0v71.74C76.97,107.85,75.9,107.84,74.87,107.84z M83.86,107.88
			c-1.13,0-2.28-0.01-3.44-0.01V36.11c1.16,0,2.31,0,3.44,0V107.88z"/>
	</g>
	<g>
		<path class="dt1" d="M123.21,68.36c-1.56-1.43-2.34-3.41-2.34-5.93V41.89c0-1.83-0.22-3.29-0.65-4.38
			c-0.44-1.09-1.21-1.55-1.99-2.09c-0.78-0.54-1.76-0.9-2.95-1.07c-1.19-0.17-2.53-0.26-4.02-0.26H84.96v1.99l10.23,0
			c6.04,0.28,6.79,4.5,6.98,6.5c0.19,2.01,0.28,4.9,0.28,8.68v10.22c0,2.01,0.4,3.65,1.22,4.94c0.81,1.29,1.73,2.32,2.76,3.09
			c1.03,0.77,2.06,1.3,3.09,1.59c1.03,0.29,1.79,0.46,2.29,0.52v0.34c-0.5,0.06-1.26,0.23-2.29,0.52c-1.03,0.29-2.06,0.82-3.09,1.59
			c-1.03,0.77-1.95,1.8-2.76,3.09c-0.81,1.29-1.22,2.94-1.22,4.94v10.22c0,3.78-0.18,6.67-0.28,8.68c-0.32,6.29-5.9,6.72-7.37,6.79
			l-9.85,0.07v2.18l26.47-0.05c1.5,0,2.84-0.23,4.02-0.4c1.18-0.17,2.17-0.53,2.95-1.07c0.78-0.55,1.39-1.36,1.82-2.45
			c0.44-1.09,0.65-2.55,0.65-4.38V81.16c0-2.46,0.8-4.44,2.39-5.93c1.59-1.49,4.32-2.23,8.18-2.23V70.5
			C127.52,70.5,124.77,69.79,123.21,68.36z"/>
	</g>
</g>
</svg>
