<?xml version="1.0" encoding="utf-8"?>
<!-- Generator: Adobe Illustrator 24.3.0, SVG Export Plug-In . SVG Version: 6.00 Build 0)  -->
<svg version="1.1" id="Layer_1" xmlns="http://www.w3.org/2000/svg" xmlns:xlink="http://www.w3.org/1999/xlink" x="0px" y="0px"
	 viewBox="0 0 144 144" style="enable-background:new 0 0 144 144;" xml:space="preserve">
<style type="text/css">
	.st0{stroke:#000000;stroke-width:2.126;stroke-miterlimit:10;}
	.st1{stroke:#000000;stroke-width:0.9921;stroke-miterlimit:10;}
	.st2{fill:#EE333C !important;}
</style>
<g>
	<path d="M90.48,39.03H90.3c-0.05,0-0.11,0-0.17,0h-0.42c-0.06,0-0.12,0-0.18,0l1,0C90.54,39.03,90.51,39.03,90.48,39.03z" style="fill:none;"/>
	<path d="M115.99,67.92c-1.4-1.28-2.09-3.05-2.09-5.31V44.23c0-1.64-0.2-2.95-0.59-3.92c-0.39-0.97-1.08-1.38-1.78-1.87
		c-0.7-0.49-1.58-0.81-2.64-0.96c-1.06-0.15-2.26-0.23-3.6-0.23H84.33l-2,0.01l-18.25-0.01c-0.01,0-0.02,0-0.04,0
		c-1.82-0.04-5.07,0-7.47,0c-14.17,0-24.3,2.35-30.15,6.54c-6.99,4.98-10.48,11.52-10.48,19.64c0,3.27,0.67,6.66,2,10.16l7.65-7.41
		c-1.56-2.91-2.34-6.04-2.34-9.38c0-9.79,7.2-14.68,21.59-14.68c5.65,0,11.03,0.47,16.13,1.42c-4.65,2.42-8.32,5.5-11.01,9.25
		c-2.7,3.74-5.54,9.72-8.53,17.93l-1.46,4.07c-3.09,8.5-5.41,14.23-6.97,17.19c-1.56,2.96-2.67,5.12-4.88,6.75l-5.64-0.16l-5.64,6.8
		h18.87l5.26-6.61l-10.46-0.03c5.2-3.27,9.39-8.41,12.38-16.06l15.23,0.13l3.93-4.18l0.06,26.7h0.21l0,0.03
		c0.02,0,1.78-0.02,4.48-0.03h4.67l0-0.03c4.39-0.03,9.67-0.05,14.24-0.06l2,0.01l17.71-0.04c1.34,0,2.54-0.2,3.6-0.36
		c1.06-0.15,1.94-0.47,2.64-0.96c0.7-0.49,1.24-1.22,1.63-2.19c0.39-0.97,0.59-2.28,0.59-3.92V79.38c0-2.2,0.71-3.97,2.14-5.31
		c1.42-1.33,3.87-2,7.33-2v-2.23C119.84,69.84,117.38,69.2,115.99,67.92z M44.9,77.36l1.12-2.79c0.2-0.52,0.88-2.53,2.05-6.03
		c3.71-10.95,8.35-18.54,13.92-22.79l0.07,31.61H44.9z M105.77,71.15c-0.45,0.05-1.13,0.21-2.05,0.46
		c-0.92,0.26-1.84,0.73-2.76,1.42c-0.92,0.69-1.75,1.62-2.47,2.77c-0.73,1.15-1.09,2.63-1.09,4.42v9.15c0,3.38-0.16,5.97-0.25,7.77
		c-0.29,5.63-5.28,6.01-6.6,6.08l-1.36,0.02l0.01-0.01c-3.64,0.07-11.42,0.04-17.71,0l-0.01-3.48c0.01-0.06,0.01-0.11,0-0.17
		l-0.14-60.57C74.88,39.01,78.91,39,82.35,39l0,0.02l6.18,0c0,0,0.5,0,1.01,0l-1,0l1.18,0c0.15,0,0.29,0,0.42,0h0.17
		c0.08,0,0.14,0,0.17,0l0.41,0c5.41,0.25,6.08,4.03,6.25,5.82c0.17,1.79,0.25,4.38,0.25,7.77v9.15c0,1.8,0.36,3.27,1.09,4.42
		c0.72,1.15,1.55,2.08,2.47,2.77c0.92,0.69,1.84,1.17,2.76,1.42c0.92,0.26,1.6,0.41,2.05,0.46V71.15z"/>
</g>
<line class="st0" x1="75.39" y1="38.12" x2="75.39" y2="104.15"/>
<line class="st1" x1="80.03" y1="38.12" x2="80.03" y2="104.15"/>
<g>
	<path class="st2" d="M115.99,67.86c-1.4-1.28-2.09-3.05-2.09-5.31V44.18c0-1.64-0.2-2.95-0.59-3.92c-0.39-0.97-1.08-1.38-1.78-1.87
		c-0.7-0.49-1.58-0.81-2.64-0.96c-1.06-0.15-2.26-0.23-3.6-0.23H83.92v1.78l6.97,0c5.41,0.25,6.08,4.03,6.25,5.82
		c0.17,1.79,0.25,4.38,0.25,7.77v9.15c0,1.8,0.36,3.27,1.09,4.42c0.72,1.15,1.55,2.08,2.47,2.77c0.92,0.69,1.84,1.17,2.76,1.42
		c0.92,0.26,1.6,0.41,2.05,0.46v0.31c-0.45,0.05-1.13,0.21-2.05,0.46c-0.92,0.26-1.84,0.73-2.76,1.42
		c-0.92,0.69-1.75,1.62-2.47,2.77c-0.73,1.15-1.09,2.63-1.09,4.42v9.15c0,3.38-0.16,5.97-0.25,7.77c-0.29,5.63-5.28,6.01-6.6,6.08
		l-6.63,0.06v1.95l21.51-0.04c1.34,0,2.54-0.2,3.6-0.36c1.06-0.15,1.94-0.47,2.64-0.96c0.7-0.49,1.24-1.22,1.63-2.19
		c0.39-0.97,0.59-2.28,0.59-3.92V79.32c0-2.2,0.71-3.97,2.14-5.31c1.42-1.33,3.87-2,7.33-2v-2.23
		C119.84,69.79,117.38,69.15,115.99,67.86z"/>
</g>
</svg>
