<?xml version="1.0" standalone="no"?>
<!DOCTYPE svg PUBLIC "-//W3C//DTD SVG 20010904//EN"
 "http://www.w3.org/TR/2001/REC-SVG-20010904/DTD/svg10.dtd">
<svg version="1.0" xmlns="http://www.w3.org/2000/svg"
 width="300.000000pt" height="170.000000pt" viewBox="0 0 300.000000 170.000000"
 preserveAspectRatio="xMidYMid meet">

<g transform="translate(0.000000,170.000000) scale(0.100000,-0.100000)"
fill="#000000" stroke="none">
<path d="M667 1548 c-14 -13 -94 -108 -178 -213 -84 -104 -199 -247 -256 -317
-91 -114 -103 -132 -103 -167 0 -36 19 -63 248 -347 288 -359 302 -374 343
-374 39 0 89 48 89 85 0 35 -4 41 -262 358 -120 147 -218 272 -218 277 0 5 96
128 213 272 270 334 267 330 267 359 0 24 -23 67 -44 81 -22 16 -75 8 -99 -14z"/>
<path d="M2210 1548 c-26 -29 -35 -64 -24 -94 5 -13 113 -150 239 -306 127
-155 231 -288 233 -294 2 -7 -97 -135 -220 -286 -263 -320 -258 -314 -258
-351 0 -38 49 -87 87 -87 46 1 31 -16 441 493 186 231 185 226 89 344 -314
390 -463 571 -479 586 -29 24 -83 22 -108 -5z"/>
<path d="M1424 1284 c-138 -33 -199 -147 -130 -246 16 -22 16 -22 16 10 0 63
46 121 116 145 22 8 89 20 149 26 181 20 325 53 325 76 0 3 -93 5 -207 4 -144
0 -227 -5 -269 -15z"/>
<path d="M1910 1279 c-19 -12 -82 -75 -140 -141 -58 -65 -261 -274 -452 -464
l-348 -344 68 0 67 1 54 62 c29 34 101 115 160 180 l105 117 161 0 161 0 -9
-72 c-24 -193 21 -298 126 -298 61 0 157 44 157 71 0 5 -11 4 -25 -1 -119 -45
-139 169 -50 548 34 144 81 284 110 327 l24 35 -67 0 c-50 0 -76 -6 -102 -21z
m-100 -286 c-16 -60 -34 -136 -40 -170 l-13 -63 -129 0 -130 0 62 70 c54 61
267 270 275 270 1 0 -10 -48 -25 -107z"/>
</g>
</svg>
