<?xml version="1.0" encoding="UTF-8" standalone="no"?> <svg id="Layer_1" data-name="Layer 1" xmlns="http://www.w3.org/2000/svg" viewBox="0 0 128 128"><defs><style>.cls-1{fill:#2d3e50;}.cls-2{fill:#2e79bd;}</style></defs><title>x</title><path class="cls-1" d="M87.39767,9.92413A12.68383,12.68383,0,0,0,78.09687,6.0564h-62.609A12.68686,12.68686,0,0,0,6.187,9.92413a12.688,12.688,0,0,0-3.86772,9.3027v89.54973a12.67955,12.67955,0,0,0,3.86772,9.2989,12.67952,12.67952,0,0,0,9.30079,3.86772H73.20843a12.49054,12.49054,0,0,1-3.59158-8.859v-9.62454h-54.129A5.25386,5.25386,0,0,1,10.27,98.23984v-79.013A5.25054,5.25054,0,0,1,15.48784,14.007h62.609a5.25384,5.25384,0,0,1,5.21979,5.21981V40.066h7.95062V19.22683A12.69721,12.69721,0,0,0,87.39767,9.92413Zm-44.31022,99.399a5.16693,5.16693,0,1,1-1.56346,3.70395A5.07149,5.07149,0,0,1,43.08746,109.32311Z"/><path class="cls-2" d="M123.0772,46.57227a8.53238,8.53238,0,0,0-6.258-2.60268H82.38123a8.88625,8.88625,0,0,0-8.86092,8.86092v60.25334a8.88525,8.88525,0,0,0,8.86092,8.85975H116.819a8.88655,8.88655,0,0,0,8.86169-8.85975V52.8307A8.54067,8.54067,0,0,0,123.0772,46.57227ZM102.09242,118.4355a3.47537,3.47537,0,1,1,1.05286-2.49192A3.406,3.406,0,0,1,102.09242,118.4355Zm18.23868-12.441A3.5353,3.5353,0,0,1,116.819,109.507H82.38125a3.53606,3.53606,0,0,1-3.51185-3.51249V52.83074a3.53644,3.53644,0,0,1,3.51185-3.51206H116.819a3.53551,3.53551,0,0,1,3.51206,3.51206Z"/></svg>